/* XPM */
static char *wall_xpm[] = {
"40 40 4 1",  // Largeur Hauteur NombreDeCouleurs CharParPixel
/* Couleurs */
". c #4A4A4A", // Gris foncé pour la pierre principale
"# c #5C5C5C", // Gris moyen pour les reliefs
"@ c #3A3A3A", // Gris très foncé pour les ombres
"  c None",    // Transparence
/* Pixels */
"........................................",
".####################################...",
".####################################...",
".####################################...",
".####################################...",
".####################################...",
".####################################...",
".####################################...",
".####################################...",
".####################################...",
".####################################...",
".####################################...",
".####################################...",
".####################################...",
".####################################...",
".####################################...",
".####################################...",
".####################################...",
".####################################...",
".####################################...",
".####################################...",
".####################################...",
".####################################...",
".####################################...",
".####################################...",
".####################################...",
".####################################...",
".####################################...",
".####################################...",
".####################################...",
".####################################...",
".####################################...",
".####################################...",
".####################################...",
".####################################...",
".####################################...",
".####################################...",
".####################################...",
"@@@@@@@@@@@@@@@@@@@@@@@@@@@@@@@@@@@@@@..",
"@@@@@@@@@@@@@@@@@@@@@@@@@@@@@@@@@@@@@..."
};